<svg width="2573" height="1696" viewBox="0 0 2573 1696" fill="none" xmlns="http://www.w3.org/2000/svg">
<path d="M2432.32 695H2124.68C2101.15 695 2082 714.156 2082 737.703V959.297C2082 982.844 2101.15 1002 2124.68 1002H2432.32C2455.85 1002 2475 982.844 2475 959.297V737.703C2475 714.156 2455.85 695 2432.32 695ZM2438.85 842.729H2345.79V799.257C2345.79 795.651 2348.73 792.717 2352.33 792.717H2438.85V842.729ZM2345.79 854.271H2438.85V904.283H2345.79V854.271ZM2450.39 823.494H2463.46V873.506H2450.39V823.494ZM2450.39 811.952V761.94H2463.46V811.952H2450.39ZM2438.85 781.175H2352.33C2342.37 781.175 2334.26 789.287 2334.26 799.257V965.837H2222.74V731.163H2432.32C2435.92 731.163 2438.85 734.097 2438.85 737.703V781.175ZM2211.21 842.729H2118.15V792.717H2211.21V842.729ZM2106.61 873.506H2093.54V823.494H2106.61V873.506ZM2118.15 854.271H2211.21V904.283H2118.15V854.271ZM2284.27 719.622V706.541H2389.63V719.622H2284.27ZM2272.73 719.622H2167.37V706.541H2272.73V719.622ZM2211.21 731.163V781.175H2118.15V737.703C2118.15 734.097 2121.08 731.163 2124.68 731.163H2211.21ZM2106.61 811.952H2093.54V761.94H2106.61V811.952ZM2093.54 885.048H2106.61V935.06H2093.54V885.048ZM2118.15 915.825H2211.21V965.837H2124.68C2121.08 965.837 2118.15 962.903 2118.15 959.297V915.825ZM2272.73 977.378V990.459H2167.37V977.378H2272.73ZM2284.27 977.378H2389.63V990.459H2284.27V977.378ZM2345.79 965.837V915.825H2438.85V959.297C2438.85 962.903 2435.92 965.837 2432.32 965.837H2345.79ZM2450.39 885.048H2463.46V935.06H2450.39V885.048ZM2463.46 737.703V750.398H2450.39V737.703C2450.39 727.733 2442.28 719.622 2432.32 719.622H2401.17V706.541H2432.32C2449.49 706.541 2463.46 720.52 2463.46 737.703ZM2124.68 706.541H2155.83V719.622H2124.68C2114.72 719.622 2106.61 727.733 2106.61 737.703V750.398H2093.54V737.703C2093.54 720.52 2107.51 706.541 2124.68 706.541ZM2093.54 959.297V946.602H2106.61V959.297C2106.61 969.267 2114.72 977.378 2124.68 977.378H2155.83V990.459H2124.68C2107.51 990.459 2093.54 976.48 2093.54 959.297ZM2432.32 990.459H2401.17V977.378H2432.32C2442.28 977.378 2450.39 969.267 2450.39 959.297V946.602H2463.46V959.297C2463.46 976.48 2449.49 990.459 2432.32 990.459Z" fill="url(#paint0_linear)"/>
<rect x="2" y="2" width="2569" height="1692" rx="148" fill="url(#paint1_radial)" stroke="url(#paint2_linear)" stroke-width="4"/>
<g filter="url(#filter0_d)">
<path d="M202.4 517.4C191.333 517 181.467 516 172.8 514.4V493.2C185.6 494.267 197.133 494.8 207.4 494.8C213.8 494.8 218.4 494.533 221.2 494C224 493.333 225.8 492.333 226.6 491C227.4 489.667 227.8 487.533 227.8 484.6C227.8 481.8 227.533 479.867 227 478.8C226.6 477.6 225.733 476.8 224.4 476.4C223.067 475.867 220.667 475.4 217.2 475L193.6 471.8C184 470.467 177.533 467.2 174.2 462C171 456.8 169.4 449.267 169.4 439.4C169.4 428.333 172.2 420.467 177.8 415.8C183.4 411.133 191.6 408.4 202.4 407.6V391.8H221.8V407.4C226.067 407.533 230.667 407.933 235.6 408.6C240.667 409.267 244.8 409.933 248 410.6V431.8C235.467 430.6 224.867 430 216.2 430C210.333 430 206 430.2 203.2 430.6C200.533 431 198.533 431.867 197.2 433.2C196 434.533 195.4 436.667 195.4 439.6C195.4 442.4 195.6 444.4 196 445.6C196.4 446.667 197.2 447.467 198.4 448C199.733 448.4 202.067 448.8 205.4 449.2L231.4 452.2C236.867 453 241.133 454.333 244.2 456.2C247.4 458.067 249.8 461.2 251.4 465.6C253 469.867 253.8 475.933 253.8 483.8C253.8 496.2 251.133 504.8 245.8 509.6C240.467 514.267 232.467 516.867 221.8 517.4V532.6H202.4V517.4ZM329.241 506.2C345.641 507.8 359.107 508.6 369.641 508.6C377.774 508.6 383.841 508.067 387.841 507C391.841 505.933 394.574 504.067 396.041 501.4C397.641 498.6 398.441 494.467 398.441 489C398.441 483.133 397.574 478.867 395.841 476.2C394.241 473.4 391.441 471.6 387.441 470.8C383.441 470 377.107 469.6 368.441 469.6C363.374 469.6 357.307 469.867 350.241 470.4C343.174 470.8 336.707 471.333 330.841 472V393.4H417.041V417.8H356.241V447.2C364.641 446.267 373.574 445.8 383.041 445.8C394.774 445.8 403.841 447.333 410.241 450.4C416.641 453.467 421.041 457.933 423.441 463.8C425.974 469.533 427.241 477.133 427.241 486.6C427.241 497.933 425.707 506.867 422.641 513.4C419.707 519.933 414.307 524.8 406.441 528C398.574 531.067 387.307 532.6 372.641 532.6C365.974 532.6 358.507 532.2 350.241 531.4C342.107 530.733 335.107 529.8 329.241 528.6V506.2ZM449.455 547.4C454.921 547.4 458.521 546.533 460.255 544.8C461.988 543.2 462.855 539.733 462.855 534.4V531H451.855V504H481.055V523.6C481.055 533.867 480.321 541.4 478.855 546.2C477.388 551 474.455 554.333 470.055 556.2C465.788 558.2 458.921 559.2 449.455 559.2V547.4ZM516.738 531L568.938 417.8H501.138V393.4H599.537V415.6L548.138 531H516.738ZM622.209 506.2C638.609 507.8 652.076 508.6 662.609 508.6C670.743 508.6 676.809 508.067 680.809 507C684.809 505.933 687.543 504.067 689.009 501.4C690.609 498.6 691.409 494.467 691.409 489C691.409 483.133 690.543 478.867 688.809 476.2C687.209 473.4 684.409 471.6 680.409 470.8C676.409 470 670.076 469.6 661.409 469.6C656.343 469.6 650.276 469.867 643.209 470.4C636.143 470.8 629.676 471.333 623.809 472V393.4H710.009V417.8H649.209V447.2C657.609 446.267 666.543 445.8 676.009 445.8C687.743 445.8 696.809 447.333 703.209 450.4C709.609 453.467 714.009 457.933 716.409 463.8C718.943 469.533 720.209 477.133 720.209 486.6C720.209 497.933 718.676 506.867 715.609 513.4C712.676 519.933 707.276 524.8 699.409 528C691.543 531.067 680.276 532.6 665.609 532.6C658.943 532.6 651.476 532.2 643.209 531.4C635.076 530.733 628.076 529.8 622.209 528.6V506.2ZM800.623 532.6C790.49 532.6 782.357 532.133 776.223 531.2C770.09 530.4 764.89 528.733 760.623 526.2C756.49 523.533 753.157 519.6 750.623 514.4C748.357 509.733 746.757 503.267 745.823 495C744.89 486.733 744.423 476.067 744.423 463C744.423 451.667 744.823 442.133 745.623 434.4C746.557 426.667 748.09 420.267 750.223 415.2C753.69 406.4 759.357 400.333 767.223 397C775.223 393.533 786.823 391.8 802.023 391.8C807.623 391.8 814.49 392.2 822.623 393C830.757 393.8 838.29 394.8 845.223 396V418.6C829.09 416.733 816.557 415.8 807.623 415.8C796.957 415.8 789.29 416.8 784.623 418.8C779.957 420.667 776.89 424.2 775.423 429.4C773.957 434.6 773.223 443.2 773.223 455.2H774.423C780.423 448.8 791.557 445.6 807.823 445.6C818.89 445.6 827.557 446.667 833.823 448.8C840.223 450.933 845.023 454.933 848.223 460.8C851.423 466.533 853.023 474.867 853.023 485.8C853.023 498.067 851.623 507.467 848.823 514C846.023 520.533 840.89 525.267 833.423 528.2C826.09 531.133 815.157 532.6 800.623 532.6ZM799.023 508.8C806.757 508.8 812.357 508.4 815.823 507.6C819.29 506.8 821.69 505.067 823.023 502.4C824.49 499.733 825.223 495.467 825.223 489.6C825.223 483.2 824.557 478.667 823.223 476C821.89 473.2 819.49 471.4 816.023 470.6C812.557 469.8 806.89 469.4 799.023 469.4C791.423 469.4 785.823 470 782.223 471.2C778.623 472.267 776.29 473.933 775.223 476.2C774.157 478.467 773.623 481.867 773.623 486.4C773.623 493.467 774.357 498.533 775.823 501.6C777.423 504.667 779.823 506.667 783.023 507.6C786.357 508.4 791.69 508.8 799.023 508.8Z" fill="url(#paint3_linear)"/>
</g>
<g filter="url(#filter1_d)">
<path d="M170 194.44H208.4C216.24 194.44 221.84 196.2 225.2 199.72C228.64 203.24 230.36 208.4 230.36 215.2C230.36 220.72 229.24 225.12 227 228.4C224.76 231.6 221.16 233.68 216.2 234.64V235.12C221.88 236.16 225.8 238.36 227.96 241.72C230.12 245.08 231.2 249.6 231.2 255.28C231.2 262 229.52 267.32 226.16 271.24C222.88 275.08 216.84 277 208.04 277H170V194.44ZM205.04 230.44C210.16 230.44 213.92 229.36 216.32 227.2C218.8 225.04 220.04 221.72 220.04 217.24C220.04 213.88 219.6 211.28 218.72 209.44C217.84 207.6 216.32 206.24 214.16 205.36C212.08 204.48 209.04 204.04 205.04 204.04H180.32V230.44H205.04ZM205.52 267.4C209.52 267.4 212.6 266.96 214.76 266.08C217 265.2 218.56 263.8 219.44 261.88C220.4 259.88 220.88 257.16 220.88 253.72C220.88 248.76 219.72 245.24 217.4 243.16C215.08 241.08 211.12 240.04 205.52 240.04H180.32V267.4H205.52ZM266.557 277.96C259.517 277.96 254.397 276.68 251.197 274.12C247.997 271.48 246.397 266.84 246.397 260.2C246.397 255.48 246.957 251.8 248.077 249.16C249.197 246.52 251.077 244.6 253.717 243.4C256.437 242.2 260.237 241.6 265.117 241.6C267.437 241.6 275.077 241.8 288.037 242.2V238.6C288.037 233.8 287.557 230.4 286.597 228.4C285.717 226.4 284.037 225.12 281.557 224.56C279.157 224 275.037 223.72 269.197 223.72C266.637 223.72 263.397 223.88 259.477 224.2C255.637 224.44 252.637 224.72 250.477 225.04V216.52C256.797 215.4 264.197 214.84 272.677 214.84C279.877 214.84 285.237 215.6 288.757 217.12C292.357 218.56 294.757 220.96 295.957 224.32C297.157 227.6 297.757 232.4 297.757 238.72V277H288.997L288.517 268.48H287.797C286.117 272.32 283.397 274.88 279.637 276.16C275.957 277.36 271.597 277.96 266.557 277.96ZM270.277 269.2C274.277 269.2 277.517 268.84 279.997 268.12C282.557 267.4 284.397 266 285.517 263.92C287.197 261.04 288.037 257.04 288.037 251.92V249.16H267.637C264.277 249.16 261.797 249.4 260.197 249.88C258.677 250.36 257.597 251.32 256.957 252.76C256.317 254.12 255.997 256.28 255.997 259.24C255.997 262.12 256.357 264.24 257.077 265.6C257.797 266.96 259.117 267.92 261.037 268.48C263.037 268.96 266.117 269.2 270.277 269.2ZM318.674 277V187.84H328.394V277H318.674ZM365.463 277.96C358.423 277.96 353.303 276.68 350.103 274.12C346.903 271.48 345.303 266.84 345.303 260.2C345.303 255.48 345.863 251.8 346.983 249.16C348.103 246.52 349.983 244.6 352.623 243.4C355.343 242.2 359.143 241.6 364.023 241.6C366.343 241.6 373.983 241.8 386.943 242.2V238.6C386.943 233.8 386.463 230.4 385.503 228.4C384.623 226.4 382.943 225.12 380.463 224.56C378.063 224 373.943 223.72 368.103 223.72C365.543 223.72 362.303 223.88 358.383 224.2C354.543 224.44 351.543 224.72 349.383 225.04V216.52C355.703 215.4 363.103 214.84 371.583 214.84C378.783 214.84 384.143 215.6 387.663 217.12C391.263 218.56 393.663 220.96 394.863 224.32C396.063 227.6 396.663 232.4 396.663 238.72V277H387.903L387.423 268.48H386.703C385.023 272.32 382.303 274.88 378.543 276.16C374.863 277.36 370.503 277.96 365.463 277.96ZM369.183 269.2C373.183 269.2 376.423 268.84 378.903 268.12C381.463 267.4 383.303 266 384.423 263.92C386.103 261.04 386.943 257.04 386.943 251.92V249.16H366.543C363.183 249.16 360.703 249.4 359.103 249.88C357.583 250.36 356.503 251.32 355.863 252.76C355.223 254.12 354.903 256.28 354.903 259.24C354.903 262.12 355.263 264.24 355.983 265.6C356.703 266.96 358.023 267.92 359.943 268.48C361.943 268.96 365.023 269.2 369.183 269.2ZM458.981 242.56C458.981 236.88 458.621 232.84 457.901 230.44C457.181 227.96 455.821 226.32 453.821 225.52C451.821 224.72 448.461 224.32 443.741 224.32C438.701 224.32 434.981 225.12 432.581 226.72C430.261 228.32 428.781 230.52 428.141 233.32C427.581 236.12 427.301 240.16 427.301 245.44V277H417.581V215.8H426.221L426.701 224.44H427.421C428.781 221.32 431.021 218.96 434.141 217.36C437.261 215.68 441.781 214.84 447.701 214.84C453.621 214.84 458.061 215.68 461.021 217.36C464.061 219.04 466.101 221.56 467.141 224.92C468.181 228.2 468.701 232.8 468.701 238.72V277H458.981V242.56ZM528.297 276.4C526.137 276.8 523.497 277.16 520.377 277.48C517.337 277.8 514.417 277.96 511.617 277.96C504.097 277.96 498.577 276.88 495.057 274.72C491.537 272.56 489.257 269.36 488.217 265.12C487.257 260.88 486.777 254.64 486.777 246.4C486.777 238.32 487.377 232.08 488.577 227.68C489.777 223.28 492.137 220.04 495.657 217.96C499.177 215.88 504.377 214.84 511.257 214.84C513.977 214.84 516.857 215 519.897 215.32C523.017 215.64 525.657 216 527.817 216.4V225.04C523.017 224.16 518.297 223.72 513.657 223.72C508.537 223.72 504.777 224.32 502.377 225.52C500.057 226.72 498.497 228.84 497.697 231.88C496.897 234.92 496.497 239.76 496.497 246.4C496.497 253.12 496.897 258.04 497.697 261.16C498.577 264.2 500.177 266.28 502.497 267.4C504.897 268.52 508.737 269.08 514.017 269.08C517.937 269.08 522.697 268.68 528.297 267.88V276.4ZM593.572 249.88H551.692C551.692 255.72 552.092 259.88 552.892 262.36C553.692 264.84 555.412 266.6 558.052 267.64C560.772 268.6 565.292 269.08 571.612 269.08C577.772 269.08 584.292 268.64 591.172 267.76V276.28C588.612 276.76 585.292 277.16 581.212 277.48C577.132 277.8 573.252 277.96 569.572 277.96C561.332 277.96 555.252 277 551.332 275.08C547.492 273.16 544.972 270.08 543.772 265.84C542.572 261.6 541.972 255.16 541.972 246.52C541.972 238.04 542.492 231.68 543.532 227.44C544.652 223.2 547.092 220.04 550.852 217.96C554.692 215.88 560.732 214.84 568.972 214.84C576.652 214.84 582.212 215.88 585.652 217.96C589.092 219.96 591.252 223.04 592.132 227.2C593.092 231.28 593.572 237.68 593.572 246.4V249.88ZM568.732 223.72C563.532 223.72 559.772 224.2 557.452 225.16C555.212 226.04 553.692 227.76 552.892 230.32C552.172 232.8 551.772 236.84 551.692 242.44H584.212V241.48C584.212 236.2 583.732 232.32 582.772 229.84C581.892 227.36 580.412 225.72 578.332 224.92C576.252 224.12 573.052 223.72 568.732 223.72Z" fill="url(#paint4_linear)"/>
</g>
<g filter="url(#filter2_d)">
<circle cx="142.006" cy="848.329" r="37.0057" fill="#FFFDFD"/>
</g>
<g filter="url(#filter3_d)">
<circle cx="695.41" cy="848.329" r="37.0057" fill="#FFFDFD"/>
</g>
<g filter="url(#filter4_d)">
<circle cx="1248.81" cy="848.329" r="37.0057" fill="#FFFDFD"/>
</g>
<g filter="url(#filter5_d)">
<circle cx="257.228" cy="848.329" r="37.0057" fill="#FFFDFD"/>
</g>
<g filter="url(#filter6_d)">
<circle cx="810.632" cy="848.329" r="37.0057" fill="#FFFDFD"/>
</g>
<g filter="url(#filter7_d)">
<circle cx="1364.04" cy="848.329" r="37.0057" fill="#FFFDFD"/>
</g>
<g filter="url(#filter8_d)">
<circle cx="364.881" cy="848.329" r="37.0057" fill="#FFFDFD"/>
</g>
<g filter="url(#filter9_d)">
<circle cx="918.285" cy="848.329" r="37.0057" fill="#FFFDFD"/>
</g>
<g filter="url(#filter10_d)">
<circle cx="1471.69" cy="848.329" r="37.0057" fill="#FFFDFD"/>
</g>
<g filter="url(#filter11_d)">
<circle cx="472.534" cy="848.329" r="37.0057" fill="#FFFDFD"/>
</g>
<g filter="url(#filter12_d)">
<circle cx="1025.94" cy="848.329" r="37.0057" fill="#FFFDFD"/>
</g>
<g filter="url(#filter13_d)">
<circle cx="1579.34" cy="848.329" r="37.0057" fill="#FFFDFD"/>
</g>
<path d="M1731.25 892.816C1727.85 892.816 1724.08 892.612 1719.93 892.204C1715.78 891.796 1712.21 891.286 1709.22 890.674V879.352C1717.52 880.168 1724.42 880.576 1729.93 880.576C1733.87 880.576 1736.8 880.406 1738.7 880.066C1740.6 879.726 1742.03 878.944 1742.98 877.72C1743.94 876.496 1744.41 874.524 1744.41 871.804C1744.41 869.288 1744.07 867.384 1743.39 866.092C1742.78 864.8 1741.69 863.916 1740.13 863.44C1738.63 862.896 1736.46 862.624 1733.6 862.624H1721.36V850.384H1733.6C1737.27 850.384 1739.89 849.84 1741.45 848.752C1743.02 847.596 1743.8 845.318 1743.8 841.918C1743.8 839.198 1743.36 837.26 1742.47 836.104C1741.66 834.88 1740.26 834.098 1738.29 833.758C1736.32 833.418 1733.19 833.248 1728.91 833.248C1726.05 833.248 1722.79 833.384 1719.12 833.656C1715.51 833.928 1712.35 834.234 1709.63 834.574V823.15C1712.49 822.538 1715.95 822.028 1720.03 821.62C1724.11 821.212 1727.89 821.008 1731.36 821.008C1741.35 821.008 1748.36 822.538 1752.37 825.598C1756.45 828.59 1758.49 833.214 1758.49 839.47C1758.49 844.434 1757.5 848.208 1755.53 850.792C1753.56 853.376 1750.53 855.11 1746.45 855.994V856.402C1750.74 857.354 1753.93 859.054 1756.04 861.502C1758.15 863.95 1759.2 867.86 1759.2 873.232C1759.2 877.448 1758.42 880.984 1756.86 883.84C1755.36 886.628 1752.57 888.838 1748.49 890.47C1744.41 892.034 1738.67 892.816 1731.25 892.816ZM1773.02 879.352C1781.38 880.168 1788.25 880.576 1793.62 880.576C1797.77 880.576 1800.87 880.304 1802.91 879.76C1804.95 879.216 1806.34 878.264 1807.09 876.904C1807.9 875.476 1808.31 873.368 1808.31 870.58C1808.31 867.588 1807.87 865.412 1806.99 864.052C1806.17 862.624 1804.74 861.706 1802.7 861.298C1800.66 860.89 1797.43 860.686 1793.01 860.686C1790.43 860.686 1787.33 860.822 1783.73 861.094C1780.13 861.298 1776.83 861.57 1773.84 861.91V821.824H1817.8V834.268H1786.79V849.262C1791.07 848.786 1795.63 848.548 1800.46 848.548C1806.44 848.548 1811.07 849.33 1814.33 850.894C1817.59 852.458 1819.84 854.736 1821.06 857.728C1822.35 860.652 1823 864.528 1823 869.356C1823 875.136 1822.22 879.692 1820.65 883.024C1819.16 886.356 1816.4 888.838 1812.39 890.47C1808.38 892.034 1802.63 892.816 1795.15 892.816C1791.75 892.816 1787.95 892.612 1783.73 892.204C1779.58 891.864 1776.01 891.388 1773.02 890.776V879.352ZM1867.48 892V877.414H1832.9V866.5L1858.5 821.824H1874.41L1848.51 865.072H1867.58L1871.56 846.406H1881.96V865.072H1891.24V877.414H1881.96V892H1867.48ZM1929.95 892.816C1924.78 892.816 1920.64 892.578 1917.51 892.102C1914.38 891.694 1911.73 890.844 1909.55 889.552C1907.44 888.192 1905.74 886.186 1904.45 883.534C1903.3 881.154 1902.48 877.856 1902 873.64C1901.53 869.424 1901.29 863.984 1901.29 857.32C1901.29 851.54 1901.49 846.678 1901.9 842.734C1902.38 838.79 1903.16 835.526 1904.25 832.942C1906.02 828.454 1908.91 825.36 1912.92 823.66C1917 821.892 1922.91 821.008 1930.67 821.008C1933.52 821.008 1937.02 821.212 1941.17 821.62C1945.32 822.028 1949.16 822.538 1952.7 823.15V834.676C1944.47 833.724 1938.08 833.248 1933.52 833.248C1928.08 833.248 1924.17 833.758 1921.79 834.778C1919.41 835.73 1917.85 837.532 1917.1 840.184C1916.35 842.836 1915.98 847.222 1915.98 853.342H1916.59C1919.65 850.078 1925.33 848.446 1933.62 848.446C1939.27 848.446 1943.69 848.99 1946.88 850.078C1950.15 851.166 1952.6 853.206 1954.23 856.198C1955.86 859.122 1956.68 863.372 1956.68 868.948C1956.68 875.204 1955.96 879.998 1954.53 883.33C1953.11 886.662 1950.49 889.076 1946.68 890.572C1942.94 892.068 1937.36 892.816 1929.95 892.816ZM1929.14 880.678C1933.08 880.678 1935.94 880.474 1937.7 880.066C1939.47 879.658 1940.7 878.774 1941.38 877.414C1942.12 876.054 1942.5 873.878 1942.5 870.886C1942.5 867.622 1942.16 865.31 1941.48 863.95C1940.8 862.522 1939.57 861.604 1937.81 861.196C1936.04 860.788 1933.15 860.584 1929.14 860.584C1925.26 860.584 1922.4 860.89 1920.57 861.502C1918.73 862.046 1917.54 862.896 1917 864.052C1916.45 865.208 1916.18 866.942 1916.18 869.254C1916.18 872.858 1916.56 875.442 1917.3 877.006C1918.12 878.57 1919.34 879.59 1920.98 880.066C1922.68 880.474 1925.4 880.678 1929.14 880.678Z" fill="white"/>
<path d="M2185.77 1449.8C2185.52 1468.88 2202.72 1479.53 2215.68 1485.86C2228.99 1492.36 2233.46 1496.53 2233.41 1502.34C2233.31 1511.23 2222.79 1515.15 2212.95 1515.3C2195.77 1515.57 2185.79 1510.65 2177.85 1506.93L2171.67 1535.97C2179.63 1539.65 2194.38 1542.86 2209.67 1543C2245.57 1543 2269.05 1525.23 2269.18 1497.67C2269.32 1462.7 2220.95 1460.77 2221.28 1445.14C2221.39 1440.4 2225.9 1435.34 2235.79 1434.05C2240.68 1433.4 2254.18 1432.91 2269.48 1439.98L2275.49 1411.89C2267.26 1408.88 2256.68 1406 2243.51 1406C2209.72 1406 2185.96 1424.01 2185.77 1449.8ZM2333.22 1408.42C2326.67 1408.42 2321.14 1412.26 2318.68 1418.14L2267.4 1540.94H2303.27L2310.41 1521.15H2354.24L2358.38 1540.94H2390L2362.41 1408.42H2333.22ZM2338.24 1444.22L2348.59 1493.98H2320.24L2338.24 1444.22ZM2142.27 1408.42L2114 1540.94H2148.18L2176.44 1408.42H2142.27ZM2091.71 1408.42L2056.13 1498.62L2041.74 1421.92C2040.05 1413.36 2033.38 1408.42 2025.98 1408.42H1967.81L1967 1412.27C1978.94 1414.87 1992.51 1419.06 2000.72 1423.54C2005.75 1426.28 2007.19 1428.68 2008.84 1435.19L2036.1 1540.94H2072.22L2127.6 1408.42H2091.71Z" fill="url(#paint5_linear)"/>
<g filter="url(#filter14_d)">
<path d="M101.992 1295L86.224 1245.46H96.736L108.76 1283.48H109.192L121 1245.46H131.368L115.6 1295H101.992ZM167.589 1295L163.989 1284.34H144.693L141.165 1295H130.869L147.645 1245.46H161.397L178.173 1295H167.589ZM154.485 1255.11H154.125L147.429 1275.42H161.253L154.485 1255.11ZM185.195 1295V1245.46H195.419V1285.71H216.371V1295H185.195ZM224.076 1295V1245.46H234.3V1295H224.076ZM246.156 1245.46H263.004C270.108 1245.46 275.172 1246.18 278.196 1247.62C281.268 1249.02 283.188 1251.3 283.956 1254.46C284.724 1257.63 285.108 1262.89 285.108 1270.23C285.108 1277.58 284.724 1282.83 283.956 1286C283.188 1289.17 281.268 1291.47 278.196 1292.91C275.172 1294.3 270.108 1295 263.004 1295H246.156V1245.46ZM262.5 1286.14C266.868 1286.14 269.796 1285.9 271.284 1285.42C272.772 1284.94 273.708 1283.72 274.092 1281.75C274.524 1279.78 274.74 1275.94 274.74 1270.23C274.74 1264.57 274.524 1260.75 274.092 1258.78C273.66 1256.77 272.7 1255.52 271.212 1255.04C269.772 1254.56 266.868 1254.32 262.5 1254.32H256.38V1286.14H262.5ZM323.098 1295V1254.75H308.698V1245.46H347.722V1254.75H333.322V1295H323.098ZM384.876 1295V1274.7H365.292V1295H355.068V1245.46H365.292V1265.48H384.876V1245.46H395.172V1295H384.876ZM435.616 1295L428.344 1277.07H417.184V1295H406.96V1245.46H430.288C434.56 1245.46 437.8 1246.11 440.008 1247.41C442.264 1248.66 443.752 1250.41 444.472 1252.66C445.24 1254.87 445.624 1257.73 445.624 1261.23C445.624 1269.06 443.272 1273.88 438.568 1275.7L446.488 1295H435.616ZM426.184 1268.22C428.968 1268.22 430.984 1268.02 432.232 1267.64C433.528 1267.26 434.344 1266.61 434.68 1265.7C435.064 1264.74 435.256 1263.25 435.256 1261.23C435.256 1259.17 435.064 1257.68 434.68 1256.77C434.344 1255.86 433.552 1255.23 432.304 1254.9C431.104 1254.51 429.088 1254.32 426.256 1254.32H417.184V1268.22H426.184ZM494.42 1245.46V1272.82C494.42 1279.4 493.988 1284.22 493.124 1287.3C492.308 1290.32 490.556 1292.46 487.868 1293.7C485.18 1294.95 480.86 1295.58 474.908 1295.58C468.956 1295.58 464.636 1294.95 461.948 1293.7C459.26 1292.46 457.484 1290.32 456.62 1287.3C455.756 1284.22 455.324 1279.4 455.324 1272.82V1245.46H465.548V1275.42C465.548 1279.11 465.716 1281.68 466.052 1283.12C466.388 1284.56 467.18 1285.54 468.428 1286.07C469.676 1286.6 471.836 1286.86 474.908 1286.86C478.028 1286.86 480.188 1286.6 481.388 1286.07C482.636 1285.54 483.404 1284.56 483.692 1283.12C484.028 1281.68 484.196 1279.11 484.196 1275.42V1245.46H494.42Z" fill="#C0BFBF"/>
</g>
<path d="M108.904 1399.41C102.664 1399.41 98.224 1398.74 95.584 1397.4C92.944 1396.05 91.264 1393.75 90.544 1390.49C89.824 1387.22 89.464 1381.75 89.464 1374.07C89.464 1366.39 89.824 1360.92 90.544 1357.65C91.264 1354.39 92.944 1352.09 95.584 1350.74C98.224 1349.4 102.664 1348.73 108.904 1348.73C115.144 1348.73 119.584 1349.4 122.224 1350.74C124.864 1352.09 126.544 1354.39 127.264 1357.65C127.984 1360.92 128.344 1366.39 128.344 1374.07C128.344 1381.75 127.984 1387.22 127.264 1390.49C126.544 1393.75 124.864 1396.05 122.224 1397.4C119.584 1398.74 115.144 1399.41 108.904 1399.41ZM108.904 1390.77C112.168 1390.77 114.352 1390.51 115.456 1389.98C116.608 1389.41 117.328 1388.09 117.616 1386.02C117.952 1383.96 118.12 1379.97 118.12 1374.07C118.12 1368.17 117.952 1364.18 117.616 1362.12C117.328 1360.05 116.608 1358.76 115.456 1358.23C114.352 1357.65 112.168 1357.37 108.904 1357.37C105.64 1357.37 103.432 1357.65 102.28 1358.23C101.176 1358.76 100.456 1360.05 100.12 1362.12C99.832 1364.18 99.688 1368.17 99.688 1374.07C99.688 1379.97 99.832 1383.96 100.12 1386.02C100.456 1388.09 101.176 1389.41 102.28 1389.98C103.432 1390.51 105.64 1390.77 108.904 1390.77ZM155.277 1399.41C153.261 1399.41 150.789 1399.27 147.861 1398.98C144.933 1398.69 142.221 1398.33 139.725 1397.9V1389.77C145.533 1390.44 150.045 1390.77 153.261 1390.77C157.101 1390.77 159.861 1390.44 161.541 1389.77C163.221 1389.05 164.325 1387.75 164.853 1385.88C165.429 1384.01 165.717 1380.91 165.717 1376.59H165.285C163.125 1378.89 159.117 1380.05 153.261 1380.05C149.277 1380.05 146.133 1379.66 143.829 1378.89C141.525 1378.13 139.797 1376.71 138.645 1374.65C137.541 1372.58 136.989 1369.56 136.989 1365.57C136.989 1361.16 137.493 1357.77 138.501 1355.42C139.509 1353.07 141.333 1351.37 143.973 1350.31C146.661 1349.25 150.597 1348.73 155.781 1348.73C159.765 1348.73 162.909 1348.92 165.213 1349.3C167.565 1349.69 169.461 1350.45 170.901 1351.61C172.389 1352.71 173.517 1354.39 174.285 1356.65C174.957 1358.52 175.413 1360.82 175.653 1363.56C175.941 1366.29 176.085 1369.7 176.085 1373.78C176.085 1378.34 175.869 1382.11 175.437 1385.09C175.053 1388.06 174.357 1390.49 173.349 1392.36C171.957 1394.95 169.845 1396.77 167.013 1397.83C164.229 1398.89 160.317 1399.41 155.277 1399.41ZM156.357 1371.48C159.093 1371.48 161.109 1371.29 162.405 1370.9C163.701 1370.47 164.541 1369.85 164.925 1369.03C165.309 1368.21 165.501 1366.99 165.501 1365.36C165.501 1362.81 165.213 1360.99 164.637 1359.89C164.109 1358.78 163.245 1358.09 162.045 1357.8C160.893 1357.46 158.997 1357.29 156.357 1357.29C153.621 1357.29 151.629 1357.44 150.381 1357.73C149.133 1358.01 148.245 1358.64 147.717 1359.6C147.237 1360.56 146.997 1362.09 146.997 1364.21C146.997 1366.51 147.237 1368.17 147.717 1369.17C148.197 1370.13 149.037 1370.76 150.237 1371.05C151.485 1371.33 153.525 1371.48 156.357 1371.48ZM179.979 1402.8L200.859 1345.34H209.211L188.331 1402.8H179.979ZM222.862 1390.05H248.35V1398.84H212.926V1392.21C212.926 1388.09 213.094 1384.99 213.43 1382.93C213.766 1380.86 214.51 1379.13 215.662 1377.74C216.862 1376.35 218.782 1375.13 221.422 1374.07L223.078 1373.42C225.19 1372.51 228.406 1371.19 232.726 1369.46C234.358 1368.84 235.51 1368.29 236.182 1367.81C236.902 1367.28 237.382 1366.68 237.622 1366.01C237.91 1365.29 238.054 1364.25 238.054 1362.91C238.054 1361.23 237.766 1360.01 237.19 1359.24C236.614 1358.47 235.63 1357.97 234.238 1357.73C232.894 1357.49 230.782 1357.37 227.902 1357.37C226.27 1357.37 224.134 1357.46 221.494 1357.65C218.854 1357.85 216.334 1358.11 213.934 1358.45V1350.31C216.142 1349.83 218.854 1349.45 222.07 1349.16C225.334 1348.87 228.334 1348.73 231.07 1348.73C234.718 1348.73 237.766 1349.04 240.214 1349.66C242.662 1350.29 244.63 1351.61 246.118 1353.62C247.606 1355.59 248.35 1358.47 248.35 1362.26C248.35 1365.19 248.038 1367.59 247.414 1369.46C246.79 1371.29 245.854 1372.75 244.606 1373.85C243.358 1374.96 241.702 1375.92 239.638 1376.73C235.798 1378.27 233.398 1379.23 232.438 1379.61L226.75 1381.85C225.886 1382.18 225.214 1382.49 224.734 1382.78C224.302 1383.02 223.966 1383.33 223.726 1383.72C223.39 1384.2 223.15 1384.8 223.006 1385.52C222.91 1386.19 222.862 1387.1 222.862 1388.25V1390.05ZM279.839 1398.84V1388.54H255.431V1380.84L273.503 1349.3H284.735L266.447 1379.83H279.911L282.719 1366.65H290.063V1379.83H296.615V1388.54H290.063V1398.84H279.839Z" fill="white"/>
<g filter="url(#filter15_d)">
<path d="M673.8 1294.42C672.168 1294.76 670.152 1295.02 667.752 1295.22C665.4 1295.46 663.216 1295.58 661.2 1295.58C655.104 1295.58 650.592 1294.83 647.664 1293.34C644.784 1291.86 642.864 1289.38 641.904 1285.93C640.944 1282.47 640.464 1277.24 640.464 1270.23C640.464 1263.32 640.944 1258.14 641.904 1254.68C642.864 1251.18 644.784 1248.68 647.664 1247.19C650.592 1245.66 655.104 1244.89 661.2 1244.89C663.264 1244.89 665.448 1245.01 667.752 1245.25C670.056 1245.49 671.976 1245.8 673.512 1246.18V1254.46C669.336 1253.98 666.096 1253.74 663.792 1253.74C659.424 1253.74 656.4 1254.08 654.72 1254.75C653.04 1255.38 651.96 1256.74 651.48 1258.86C651 1260.97 650.76 1264.76 650.76 1270.23C650.76 1275.7 651 1279.5 651.48 1281.61C651.96 1283.72 653.04 1285.11 654.72 1285.78C656.4 1286.41 659.424 1286.72 663.792 1286.72C667.44 1286.72 670.776 1286.48 673.8 1286V1294.42ZM715.073 1295L711.473 1284.34H692.177L688.649 1295H678.353L695.129 1245.46H708.881L725.657 1295H715.073ZM701.969 1255.11H701.609L694.913 1275.42H708.737L701.969 1255.11ZM761.335 1295L754.063 1277.07H742.903V1295H732.679V1245.46H756.007C760.279 1245.46 763.519 1246.11 765.727 1247.41C767.983 1248.66 769.471 1250.41 770.191 1252.66C770.959 1254.87 771.343 1257.73 771.343 1261.23C771.343 1269.06 768.991 1273.88 764.287 1275.7L772.207 1295H761.335ZM751.903 1268.22C754.687 1268.22 756.703 1268.02 757.951 1267.64C759.247 1267.26 760.063 1266.61 760.399 1265.7C760.783 1264.74 760.975 1263.25 760.975 1261.23C760.975 1259.17 760.783 1257.68 760.399 1256.77C760.063 1255.86 759.271 1255.23 758.023 1254.9C756.823 1254.51 754.807 1254.32 751.975 1254.32H742.903V1268.22H751.903ZM781.546 1245.46H798.394C805.498 1245.46 810.562 1246.18 813.586 1247.62C816.658 1249.02 818.578 1251.3 819.346 1254.46C820.114 1257.63 820.498 1262.89 820.498 1270.23C820.498 1277.58 820.114 1282.83 819.346 1286C818.578 1289.17 816.658 1291.47 813.586 1292.91C810.562 1294.3 805.498 1295 798.394 1295H781.546V1245.46ZM797.89 1286.14C802.258 1286.14 805.186 1285.9 806.674 1285.42C808.162 1284.94 809.098 1283.72 809.482 1281.75C809.914 1279.78 810.13 1275.94 810.13 1270.23C810.13 1264.57 809.914 1260.75 809.482 1258.78C809.05 1256.77 808.09 1255.52 806.602 1255.04C805.162 1254.56 802.258 1254.32 797.89 1254.32H791.77V1286.14H797.89ZM878.36 1295V1274.7H858.776V1295H848.552V1245.46H858.776V1265.48H878.36V1245.46H888.656V1295H878.36ZM919.957 1295.58C913.189 1295.58 908.365 1294.86 905.485 1293.42C902.605 1291.98 900.781 1289.62 900.013 1286.36C899.293 1283.1 898.933 1277.72 898.933 1270.23C898.933 1262.74 899.293 1257.37 900.013 1254.1C900.781 1250.84 902.605 1248.49 905.485 1247.05C908.365 1245.61 913.189 1244.89 919.957 1244.89C926.725 1244.89 931.549 1245.61 934.429 1247.05C937.357 1248.49 939.181 1250.84 939.901 1254.1C940.669 1257.37 941.053 1262.74 941.053 1270.23C941.053 1277.72 940.669 1283.1 939.901 1286.36C939.181 1289.62 937.357 1291.98 934.429 1293.42C931.549 1294.86 926.725 1295.58 919.957 1295.58ZM919.957 1286.72C923.749 1286.72 926.293 1286.46 927.589 1285.93C928.933 1285.4 929.773 1284.13 930.109 1282.11C930.493 1280.05 930.685 1276.09 930.685 1270.23C930.685 1264.38 930.493 1260.44 930.109 1258.42C929.773 1256.36 928.933 1255.06 927.589 1254.54C926.293 1254.01 923.749 1253.74 919.957 1253.74C916.165 1253.74 913.621 1254.01 912.325 1254.54C911.029 1255.06 910.189 1256.36 909.805 1258.42C909.421 1260.49 909.229 1264.42 909.229 1270.23C909.229 1276.04 909.421 1279.98 909.805 1282.04C910.189 1284.1 911.029 1285.4 912.325 1285.93C913.621 1286.46 916.165 1286.72 919.957 1286.72ZM951.492 1295V1245.46H961.716V1285.71H982.668V1295H951.492ZM990.445 1245.46H1007.29C1014.4 1245.46 1019.46 1246.18 1022.48 1247.62C1025.56 1249.02 1027.48 1251.3 1028.24 1254.46C1029.01 1257.63 1029.4 1262.89 1029.4 1270.23C1029.4 1277.58 1029.01 1282.83 1028.24 1286C1027.48 1289.17 1025.56 1291.47 1022.48 1292.91C1019.46 1294.3 1014.4 1295 1007.29 1295H990.445V1245.46ZM1006.79 1286.14C1011.16 1286.14 1014.08 1285.9 1015.57 1285.42C1017.06 1284.94 1018 1283.72 1018.38 1281.75C1018.81 1279.78 1019.03 1275.94 1019.03 1270.23C1019.03 1264.57 1018.81 1260.75 1018.38 1258.78C1017.95 1256.77 1016.99 1255.52 1015.5 1255.04C1014.06 1254.56 1011.16 1254.32 1006.79 1254.32H1000.67V1286.14H1006.79ZM1039.8 1295V1245.46H1073.86V1254.32H1050.03V1265.55H1070.48V1274.41H1050.03V1286.14H1073.86V1295H1039.8ZM1112.55 1295L1105.27 1277.07H1094.11V1295H1083.89V1245.46H1107.22C1111.49 1245.46 1114.73 1246.11 1116.94 1247.41C1119.19 1248.66 1120.68 1250.41 1121.4 1252.66C1122.17 1254.87 1122.55 1257.73 1122.55 1261.23C1122.55 1269.06 1120.2 1273.88 1115.5 1275.7L1123.42 1295H1112.55ZM1103.11 1268.22C1105.9 1268.22 1107.91 1268.02 1109.16 1267.64C1110.46 1267.26 1111.27 1266.61 1111.61 1265.7C1111.99 1264.74 1112.19 1263.25 1112.19 1261.23C1112.19 1259.17 1111.99 1257.68 1111.61 1256.77C1111.27 1255.86 1110.48 1255.23 1109.23 1254.9C1108.03 1254.51 1106.02 1254.32 1103.19 1254.32H1094.11V1268.22H1103.11Z" fill="#C0BFBF"/>
</g>
<path d="M673.8 1396L670.2 1385.34H650.904L647.376 1396H637.08L653.856 1346.46H667.608L684.384 1396H673.8ZM660.696 1356.11H660.336L653.64 1376.42H667.464L660.696 1356.11ZM690.47 1396V1342.5H700.118V1396H690.47ZM741.474 1380.52H718.578C718.578 1383.11 718.77 1384.94 719.154 1385.99C719.538 1387.05 720.402 1387.77 721.746 1388.15C723.09 1388.49 725.466 1388.66 728.874 1388.66C731.706 1388.66 735.426 1388.46 740.034 1388.08V1395.42C738.498 1395.76 736.482 1396.02 733.986 1396.22C731.49 1396.46 729.042 1396.58 726.642 1396.58C721.314 1396.58 717.402 1395.98 714.906 1394.78C712.41 1393.58 710.802 1391.7 710.082 1389.16C709.362 1386.62 709.002 1382.8 709.002 1377.71C709.002 1372.77 709.362 1369.02 710.082 1366.48C710.85 1363.89 712.41 1361.94 714.762 1360.65C717.162 1359.35 720.858 1358.7 725.85 1358.7C730.746 1358.7 734.298 1359.35 736.506 1360.65C738.714 1361.9 740.082 1363.77 740.61 1366.26C741.186 1368.71 741.474 1372.53 741.474 1377.71V1380.52ZM725.706 1366.34C723.546 1366.34 721.986 1366.55 721.026 1366.98C720.066 1367.37 719.418 1368.11 719.082 1369.22C718.794 1370.32 718.626 1372.12 718.578 1374.62H732.402C732.402 1372.12 732.21 1370.3 731.826 1369.14C731.442 1367.99 730.794 1367.25 729.882 1366.91C728.97 1366.53 727.578 1366.34 725.706 1366.34ZM772.643 1396L764.507 1384.26H764.075L756.011 1396H745.931L758.675 1377.35L746.363 1359.28H756.947L764.579 1370.44H765.083L772.643 1359.28H782.795L770.483 1377.28L783.299 1396H772.643ZM825.759 1396.58C818.703 1396.58 812.655 1396.19 807.615 1395.42V1386.86C813.519 1387.43 818.559 1387.72 822.735 1387.72C825.183 1387.72 827.079 1387.62 828.423 1387.43C829.815 1387.19 830.847 1386.81 831.519 1386.28C832.143 1385.8 832.527 1385.22 832.671 1384.55C832.863 1383.88 832.959 1382.92 832.959 1381.67C832.959 1380.28 832.863 1379.27 832.671 1378.65C832.479 1377.98 832.095 1377.5 831.519 1377.21C830.943 1376.87 829.983 1376.63 828.639 1376.49L818.055 1375.26C814.887 1374.83 812.439 1374.02 810.711 1372.82C808.983 1371.57 807.783 1369.98 807.111 1368.06C806.487 1366.1 806.175 1363.67 806.175 1360.79C806.175 1356.57 806.943 1353.38 808.479 1351.22C810.015 1349.01 812.079 1347.57 814.671 1346.9C817.263 1346.22 820.599 1345.89 824.679 1345.89C830.967 1345.89 836.343 1346.37 840.807 1347.33V1355.68C836.151 1355.06 831.471 1354.74 826.767 1354.74C822.447 1354.74 819.591 1355.1 818.199 1355.82C817.431 1356.21 816.951 1356.71 816.759 1357.34C816.567 1357.96 816.471 1358.9 816.471 1360.14C816.471 1361.58 816.567 1362.62 816.759 1363.24C816.951 1363.86 817.359 1364.32 817.983 1364.61C818.655 1364.85 819.759 1365.06 821.295 1365.26L832.671 1366.62C834.879 1366.86 836.703 1367.32 838.143 1367.99C839.583 1368.62 840.711 1369.67 841.527 1371.16C842.679 1373.22 843.255 1376.42 843.255 1380.74C843.255 1385.3 842.535 1388.73 841.095 1391.03C839.655 1393.34 837.711 1394.85 835.263 1395.57C832.863 1396.24 829.695 1396.58 825.759 1396.58ZM895.1 1376.56C895.1 1373.54 894.98 1371.42 894.74 1370.22C894.5 1368.98 893.996 1368.18 893.228 1367.85C892.508 1367.46 891.236 1367.27 889.412 1367.27C887.588 1367.27 886.244 1367.58 885.38 1368.21C884.516 1368.78 883.94 1369.74 883.652 1371.09C883.364 1372.38 883.22 1374.35 883.22 1376.99V1396H873.644V1376.56C873.644 1373.54 873.524 1371.42 873.284 1370.22C873.044 1368.98 872.54 1368.18 871.772 1367.85C871.052 1367.46 869.78 1367.27 867.956 1367.27C866.132 1367.27 864.788 1367.58 863.924 1368.21C863.06 1368.78 862.484 1369.74 862.196 1371.09C861.908 1372.43 861.764 1374.4 861.764 1376.99V1396H852.188V1359.28H861.188L861.476 1363.82H861.98C862.892 1362.09 864.212 1360.82 865.94 1360C867.716 1359.14 869.924 1358.7 872.564 1358.7C875.444 1358.7 877.628 1359.11 879.116 1359.93C880.652 1360.74 881.756 1362.04 882.428 1363.82H883.004C884.828 1360.41 888.428 1358.7 893.804 1358.7C896.78 1358.7 899.06 1359.23 900.644 1360.29C902.228 1361.34 903.284 1362.9 903.812 1364.97C904.388 1366.98 904.676 1369.7 904.676 1373.1V1396H895.1V1376.56ZM914.765 1351.22V1342.5H924.629V1351.22H914.765ZM914.837 1396V1359.28H924.485V1396H914.837ZM938.193 1396V1367.2H931.137V1359.28H938.193V1348.62H947.769V1359.28H956.121V1367.2H947.769V1396H938.193ZM985.616 1376.56C985.616 1373.49 985.472 1371.35 985.184 1370.15C984.944 1368.95 984.416 1368.18 983.6 1367.85C982.784 1367.46 981.344 1367.27 979.28 1367.27C977.216 1367.27 975.68 1367.58 974.672 1368.21C973.712 1368.83 973.064 1369.82 972.728 1371.16C972.44 1372.5 972.296 1374.45 972.296 1376.99V1396H962.72V1342.5H972.296V1363.6H972.872C973.832 1361.92 975.176 1360.7 976.904 1359.93C978.68 1359.16 980.936 1358.78 983.672 1358.78C986.888 1358.78 989.336 1359.3 991.016 1360.36C992.696 1361.42 993.8 1362.95 994.328 1364.97C994.904 1366.94 995.192 1369.62 995.192 1373.03V1396H985.616V1376.56ZM1022.62 1396V1386.28H1033.13V1396H1022.62ZM1061.17 1396.58C1054.11 1396.58 1048.06 1396.19 1043.02 1395.42V1386.86C1048.93 1387.43 1053.97 1387.72 1058.14 1387.72C1060.59 1387.72 1062.49 1387.62 1063.83 1387.43C1065.22 1387.19 1066.25 1386.81 1066.93 1386.28C1067.55 1385.8 1067.93 1385.22 1068.08 1384.55C1068.27 1383.88 1068.37 1382.92 1068.37 1381.67C1068.37 1380.28 1068.27 1379.27 1068.08 1378.65C1067.89 1377.98 1067.5 1377.5 1066.93 1377.21C1066.35 1376.87 1065.39 1376.63 1064.05 1376.49L1053.46 1375.26C1050.29 1374.83 1047.85 1374.02 1046.12 1372.82C1044.39 1371.57 1043.19 1369.98 1042.52 1368.06C1041.89 1366.1 1041.58 1363.67 1041.58 1360.79C1041.58 1356.57 1042.35 1353.38 1043.89 1351.22C1045.42 1349.01 1047.49 1347.57 1050.08 1346.9C1052.67 1346.22 1056.01 1345.89 1060.09 1345.89C1066.37 1345.89 1071.75 1346.37 1076.21 1347.33V1355.68C1071.56 1355.06 1066.88 1354.74 1062.17 1354.74C1057.85 1354.74 1055 1355.1 1053.61 1355.82C1052.84 1356.21 1052.36 1356.71 1052.17 1357.34C1051.97 1357.96 1051.88 1358.9 1051.88 1360.14C1051.88 1361.58 1051.97 1362.62 1052.17 1363.24C1052.36 1363.86 1052.77 1364.32 1053.39 1364.61C1054.06 1364.85 1055.17 1365.06 1056.7 1365.26L1068.08 1366.62C1070.29 1366.86 1072.11 1367.32 1073.55 1367.99C1074.99 1368.62 1076.12 1369.67 1076.93 1371.16C1078.09 1373.22 1078.66 1376.42 1078.66 1380.74C1078.66 1385.3 1077.94 1388.73 1076.5 1391.03C1075.06 1393.34 1073.12 1394.85 1070.67 1395.57C1068.27 1396.24 1065.1 1396.58 1061.17 1396.58Z" fill="white"/>
<defs>
<filter id="filter0_d" x="167.4" y="391.8" width="691.623" height="175.4" filterUnits="userSpaceOnUse" color-interpolation-filters="sRGB">
<feFlood flood-opacity="0" result="BackgroundImageFix"/>
<feColorMatrix in="SourceAlpha" type="matrix" values="0 0 0 0 0 0 0 0 0 0 0 0 0 0 0 0 0 0 127 0"/>
<feOffset dx="2" dy="4"/>
<feGaussianBlur stdDeviation="2"/>
<feColorMatrix type="matrix" values="0 0 0 0 0 0 0 0 0 0 0 0 0 0 0 0 0 0 0.25 0"/>
<feBlend mode="normal" in2="BackgroundImageFix" result="effect1_dropShadow"/>
<feBlend mode="normal" in="SourceGraphic" in2="effect1_dropShadow" result="shape"/>
</filter>
<filter id="filter1_d" x="168" y="187.84" width="431.572" height="98.12" filterUnits="userSpaceOnUse" color-interpolation-filters="sRGB">
<feFlood flood-opacity="0" result="BackgroundImageFix"/>
<feColorMatrix in="SourceAlpha" type="matrix" values="0 0 0 0 0 0 0 0 0 0 0 0 0 0 0 0 0 0 127 0"/>
<feOffset dx="2" dy="4"/>
<feGaussianBlur stdDeviation="2"/>
<feColorMatrix type="matrix" values="0 0 0 0 0 0 0 0 0 0 0 0 0 0 0 0 0 0 0.25 0"/>
<feBlend mode="normal" in2="BackgroundImageFix" result="effect1_dropShadow"/>
<feBlend mode="normal" in="SourceGraphic" in2="effect1_dropShadow" result="shape"/>
</filter>
<filter id="filter2_d" x="103" y="811.324" width="82.0115" height="82.0115" filterUnits="userSpaceOnUse" color-interpolation-filters="sRGB">
<feFlood flood-opacity="0" result="BackgroundImageFix"/>
<feColorMatrix in="SourceAlpha" type="matrix" values="0 0 0 0 0 0 0 0 0 0 0 0 0 0 0 0 0 0 127 0"/>
<feOffset dx="2" dy="4"/>
<feGaussianBlur stdDeviation="2"/>
<feColorMatrix type="matrix" values="0 0 0 0 0 0 0 0 0 0 0 0 0 0 0 0 0 0 0.25 0"/>
<feBlend mode="normal" in2="BackgroundImageFix" result="effect1_dropShadow"/>
<feBlend mode="normal" in="SourceGraphic" in2="effect1_dropShadow" result="shape"/>
</filter>
<filter id="filter3_d" x="656.404" y="811.324" width="82.0115" height="82.0115" filterUnits="userSpaceOnUse" color-interpolation-filters="sRGB">
<feFlood flood-opacity="0" result="BackgroundImageFix"/>
<feColorMatrix in="SourceAlpha" type="matrix" values="0 0 0 0 0 0 0 0 0 0 0 0 0 0 0 0 0 0 127 0"/>
<feOffset dx="2" dy="4"/>
<feGaussianBlur stdDeviation="2"/>
<feColorMatrix type="matrix" values="0 0 0 0 0 0 0 0 0 0 0 0 0 0 0 0 0 0 0.25 0"/>
<feBlend mode="normal" in2="BackgroundImageFix" result="effect1_dropShadow"/>
<feBlend mode="normal" in="SourceGraphic" in2="effect1_dropShadow" result="shape"/>
</filter>
<filter id="filter4_d" x="1209.81" y="811.324" width="82.0115" height="82.0115" filterUnits="userSpaceOnUse" color-interpolation-filters="sRGB">
<feFlood flood-opacity="0" result="BackgroundImageFix"/>
<feColorMatrix in="SourceAlpha" type="matrix" values="0 0 0 0 0 0 0 0 0 0 0 0 0 0 0 0 0 0 127 0"/>
<feOffset dx="2" dy="4"/>
<feGaussianBlur stdDeviation="2"/>
<feColorMatrix type="matrix" values="0 0 0 0 0 0 0 0 0 0 0 0 0 0 0 0 0 0 0.25 0"/>
<feBlend mode="normal" in2="BackgroundImageFix" result="effect1_dropShadow"/>
<feBlend mode="normal" in="SourceGraphic" in2="effect1_dropShadow" result="shape"/>
</filter>
<filter id="filter5_d" x="218.222" y="811.324" width="82.0115" height="82.0115" filterUnits="userSpaceOnUse" color-interpolation-filters="sRGB">
<feFlood flood-opacity="0" result="BackgroundImageFix"/>
<feColorMatrix in="SourceAlpha" type="matrix" values="0 0 0 0 0 0 0 0 0 0 0 0 0 0 0 0 0 0 127 0"/>
<feOffset dx="2" dy="4"/>
<feGaussianBlur stdDeviation="2"/>
<feColorMatrix type="matrix" values="0 0 0 0 0 0 0 0 0 0 0 0 0 0 0 0 0 0 0.25 0"/>
<feBlend mode="normal" in2="BackgroundImageFix" result="effect1_dropShadow"/>
<feBlend mode="normal" in="SourceGraphic" in2="effect1_dropShadow" result="shape"/>
</filter>
<filter id="filter6_d" x="771.626" y="811.324" width="82.0115" height="82.0115" filterUnits="userSpaceOnUse" color-interpolation-filters="sRGB">
<feFlood flood-opacity="0" result="BackgroundImageFix"/>
<feColorMatrix in="SourceAlpha" type="matrix" values="0 0 0 0 0 0 0 0 0 0 0 0 0 0 0 0 0 0 127 0"/>
<feOffset dx="2" dy="4"/>
<feGaussianBlur stdDeviation="2"/>
<feColorMatrix type="matrix" values="0 0 0 0 0 0 0 0 0 0 0 0 0 0 0 0 0 0 0.25 0"/>
<feBlend mode="normal" in2="BackgroundImageFix" result="effect1_dropShadow"/>
<feBlend mode="normal" in="SourceGraphic" in2="effect1_dropShadow" result="shape"/>
</filter>
<filter id="filter7_d" x="1325.03" y="811.324" width="82.0115" height="82.0115" filterUnits="userSpaceOnUse" color-interpolation-filters="sRGB">
<feFlood flood-opacity="0" result="BackgroundImageFix"/>
<feColorMatrix in="SourceAlpha" type="matrix" values="0 0 0 0 0 0 0 0 0 0 0 0 0 0 0 0 0 0 127 0"/>
<feOffset dx="2" dy="4"/>
<feGaussianBlur stdDeviation="2"/>
<feColorMatrix type="matrix" values="0 0 0 0 0 0 0 0 0 0 0 0 0 0 0 0 0 0 0.25 0"/>
<feBlend mode="normal" in2="BackgroundImageFix" result="effect1_dropShadow"/>
<feBlend mode="normal" in="SourceGraphic" in2="effect1_dropShadow" result="shape"/>
</filter>
<filter id="filter8_d" x="325.875" y="811.324" width="82.0115" height="82.0115" filterUnits="userSpaceOnUse" color-interpolation-filters="sRGB">
<feFlood flood-opacity="0" result="BackgroundImageFix"/>
<feColorMatrix in="SourceAlpha" type="matrix" values="0 0 0 0 0 0 0 0 0 0 0 0 0 0 0 0 0 0 127 0"/>
<feOffset dx="2" dy="4"/>
<feGaussianBlur stdDeviation="2"/>
<feColorMatrix type="matrix" values="0 0 0 0 0 0 0 0 0 0 0 0 0 0 0 0 0 0 0.25 0"/>
<feBlend mode="normal" in2="BackgroundImageFix" result="effect1_dropShadow"/>
<feBlend mode="normal" in="SourceGraphic" in2="effect1_dropShadow" result="shape"/>
</filter>
<filter id="filter9_d" x="879.279" y="811.324" width="82.0115" height="82.0115" filterUnits="userSpaceOnUse" color-interpolation-filters="sRGB">
<feFlood flood-opacity="0" result="BackgroundImageFix"/>
<feColorMatrix in="SourceAlpha" type="matrix" values="0 0 0 0 0 0 0 0 0 0 0 0 0 0 0 0 0 0 127 0"/>
<feOffset dx="2" dy="4"/>
<feGaussianBlur stdDeviation="2"/>
<feColorMatrix type="matrix" values="0 0 0 0 0 0 0 0 0 0 0 0 0 0 0 0 0 0 0.25 0"/>
<feBlend mode="normal" in2="BackgroundImageFix" result="effect1_dropShadow"/>
<feBlend mode="normal" in="SourceGraphic" in2="effect1_dropShadow" result="shape"/>
</filter>
<filter id="filter10_d" x="1432.68" y="811.324" width="82.0115" height="82.0115" filterUnits="userSpaceOnUse" color-interpolation-filters="sRGB">
<feFlood flood-opacity="0" result="BackgroundImageFix"/>
<feColorMatrix in="SourceAlpha" type="matrix" values="0 0 0 0 0 0 0 0 0 0 0 0 0 0 0 0 0 0 127 0"/>
<feOffset dx="2" dy="4"/>
<feGaussianBlur stdDeviation="2"/>
<feColorMatrix type="matrix" values="0 0 0 0 0 0 0 0 0 0 0 0 0 0 0 0 0 0 0.25 0"/>
<feBlend mode="normal" in2="BackgroundImageFix" result="effect1_dropShadow"/>
<feBlend mode="normal" in="SourceGraphic" in2="effect1_dropShadow" result="shape"/>
</filter>
<filter id="filter11_d" x="433.529" y="811.324" width="82.0115" height="82.0115" filterUnits="userSpaceOnUse" color-interpolation-filters="sRGB">
<feFlood flood-opacity="0" result="BackgroundImageFix"/>
<feColorMatrix in="SourceAlpha" type="matrix" values="0 0 0 0 0 0 0 0 0 0 0 0 0 0 0 0 0 0 127 0"/>
<feOffset dx="2" dy="4"/>
<feGaussianBlur stdDeviation="2"/>
<feColorMatrix type="matrix" values="0 0 0 0 0 0 0 0 0 0 0 0 0 0 0 0 0 0 0.25 0"/>
<feBlend mode="normal" in2="BackgroundImageFix" result="effect1_dropShadow"/>
<feBlend mode="normal" in="SourceGraphic" in2="effect1_dropShadow" result="shape"/>
</filter>
<filter id="filter12_d" x="986.932" y="811.324" width="82.0115" height="82.0115" filterUnits="userSpaceOnUse" color-interpolation-filters="sRGB">
<feFlood flood-opacity="0" result="BackgroundImageFix"/>
<feColorMatrix in="SourceAlpha" type="matrix" values="0 0 0 0 0 0 0 0 0 0 0 0 0 0 0 0 0 0 127 0"/>
<feOffset dx="2" dy="4"/>
<feGaussianBlur stdDeviation="2"/>
<feColorMatrix type="matrix" values="0 0 0 0 0 0 0 0 0 0 0 0 0 0 0 0 0 0 0.25 0"/>
<feBlend mode="normal" in2="BackgroundImageFix" result="effect1_dropShadow"/>
<feBlend mode="normal" in="SourceGraphic" in2="effect1_dropShadow" result="shape"/>
</filter>
<filter id="filter13_d" x="1540.34" y="811.324" width="82.0115" height="82.0115" filterUnits="userSpaceOnUse" color-interpolation-filters="sRGB">
<feFlood flood-opacity="0" result="BackgroundImageFix"/>
<feColorMatrix in="SourceAlpha" type="matrix" values="0 0 0 0 0 0 0 0 0 0 0 0 0 0 0 0 0 0 127 0"/>
<feOffset dx="2" dy="4"/>
<feGaussianBlur stdDeviation="2"/>
<feColorMatrix type="matrix" values="0 0 0 0 0 0 0 0 0 0 0 0 0 0 0 0 0 0 0.25 0"/>
<feBlend mode="normal" in2="BackgroundImageFix" result="effect1_dropShadow"/>
<feBlend mode="normal" in="SourceGraphic" in2="effect1_dropShadow" result="shape"/>
</filter>
<filter id="filter14_d" x="84.2241" y="1245.46" width="416.196" height="58.112" filterUnits="userSpaceOnUse" color-interpolation-filters="sRGB">
<feFlood flood-opacity="0" result="BackgroundImageFix"/>
<feColorMatrix in="SourceAlpha" type="matrix" values="0 0 0 0 0 0 0 0 0 0 0 0 0 0 0 0 0 0 127 0"/>
<feOffset dx="2" dy="4"/>
<feGaussianBlur stdDeviation="2"/>
<feColorMatrix type="matrix" values="0 0 0 0 0 0 0 0 0 0 0 0 0 0 0 0 0 0 0.25 0"/>
<feBlend mode="normal" in2="BackgroundImageFix" result="effect1_dropShadow"/>
<feBlend mode="normal" in="SourceGraphic" in2="effect1_dropShadow" result="shape"/>
</filter>
<filter id="filter15_d" x="638.464" y="1244.89" width="490.954" height="58.688" filterUnits="userSpaceOnUse" color-interpolation-filters="sRGB">
<feFlood flood-opacity="0" result="BackgroundImageFix"/>
<feColorMatrix in="SourceAlpha" type="matrix" values="0 0 0 0 0 0 0 0 0 0 0 0 0 0 0 0 0 0 127 0"/>
<feOffset dx="2" dy="4"/>
<feGaussianBlur stdDeviation="2"/>
<feColorMatrix type="matrix" values="0 0 0 0 0 0 0 0 0 0 0 0 0 0 0 0 0 0 0.25 0"/>
<feBlend mode="normal" in2="BackgroundImageFix" result="effect1_dropShadow"/>
<feBlend mode="normal" in="SourceGraphic" in2="effect1_dropShadow" result="shape"/>
</filter>
<linearGradient id="paint0_linear" x1="2082" y1="694.621" x2="2475.13" y2="1002.21" gradientUnits="userSpaceOnUse">
<stop stop-color="#E7D5A7"/>
<stop offset="1" stop-color="#BDA870" stop-opacity="0.49"/>
</linearGradient>
<radialGradient id="paint1_radial" cx="0" cy="0" r="1" gradientUnits="userSpaceOnUse" gradientTransform="rotate(33.7734) scale(3050.85 4628.45)">
<stop stop-color="white" stop-opacity="0.7"/>
<stop offset="1" stop-color="#C4C4C4" stop-opacity="0"/>
</radialGradient>
<linearGradient id="paint2_linear" x1="0" y1="0" x2="2573" y2="1696" gradientUnits="userSpaceOnUse">
<stop stop-color="white"/>
<stop offset="1" stop-color="white" stop-opacity="0.17"/>
</linearGradient>
<linearGradient id="paint3_linear" x1="158" y1="304" x2="644.396" y2="794.055" gradientUnits="userSpaceOnUse">
<stop stop-color="#FFFBFB"/>
<stop offset="1" stop-color="#FFFBFB" stop-opacity="0.94"/>
</linearGradient>
<linearGradient id="paint4_linear" x1="158" y1="141" x2="502.706" y2="488.369" gradientUnits="userSpaceOnUse">
<stop stop-color="#FFFBFB"/>
<stop offset="1" stop-color="#FFFBFB" stop-opacity="0.56"/>
</linearGradient>
<linearGradient id="paint5_linear" x1="2000" y1="1348" x2="2413.01" y2="1444.13" gradientUnits="userSpaceOnUse">
<stop stop-color="#9596D6"/>
<stop offset="1" stop-color="#475E98"/>
</linearGradient>
</defs>
</svg>
